<svg width="30" height="19" viewBox="0 0 30 19" fill="none" xmlns="http://www.w3.org/2000/svg">
<g clip-path="url(#clip0_678_10834)">
<path d="M0.775782 0.508972C0.532249 0.71284 0.336519 0.96776 0.202457 1.25568C0.068395 1.5436 -0.000720545 1.85748 5.66398e-06 2.17508V16.8307C-0.000295486 17.1479 0.069025 17.4612 0.203072 17.7485C0.337119 18.0359 0.532625 18.2904 0.775782 18.4939L14.4991 9.50364L0.775782 0.508972Z" fill="#41479B"/>
<path d="M0.775879 18.4896C1.16657 18.8189 1.66129 18.9992 2.17228 18.9985H26.8231C27.4 18.9985 27.9532 18.7694 28.3611 18.3615C28.769 17.9536 28.9982 17.4003 28.9982 16.8235V9.49927H14.4977L0.775879 18.4896Z" fill="#FF4B55"/>
<path d="M26.8275 1.33151e-06H2.17667C1.66571 -0.000565299 1.17103 0.179734 0.780273 0.508966L14.5035 9.49928H29.004V2.17218C29.0033 1.59556 28.7736 1.04285 28.3654 0.635526C27.9573 0.228206 27.4041 -0.000383591 26.8275 1.33151e-06V1.33151e-06Z" fill="#F5F5F5"/>
</g>
<defs>
<clipPath id="clip0_678_10834">
<rect width="29.004" height="18.9985" rx="2" fill="white"/>
</clipPath>
</defs>
</svg>
