<svg width="21" height="18" viewBox="0 0 21 18" fill="none" xmlns="http://www.w3.org/2000/svg">
<path d="M20.25 0.75H0.75C0.335156 0.75 0 1.08516 0 1.5V16.5C0 16.9148 0.335156 17.25 0.75 17.25H20.25C20.6648 17.25 21 16.9148 21 16.5V1.5C21 1.08516 20.6648 0.75 20.25 0.75ZM18.3563 3.30234L10.9617 9.05625C10.7789 9.19922 10.5234 9.19922 10.3406 9.05625L2.94375 3.30234C2.91587 3.28082 2.89541 3.25112 2.88526 3.21739C2.87511 3.18367 2.87576 3.14761 2.88713 3.11427C2.8985 3.08094 2.92002 3.052 2.94867 3.0315C2.97731 3.01101 3.01165 2.99999 3.04688 3H18.2531C18.2883 2.99999 18.3227 3.01101 18.3513 3.0315C18.38 3.052 18.4015 3.08094 18.4129 3.11427C18.4242 3.14761 18.4249 3.18367 18.4147 3.21739C18.4046 3.25112 18.3841 3.28082 18.3563 3.30234Z" fill="#EB7717"/>
</svg>
