<svg width="24" height="25" viewBox="0 0 24 25" fill="none" xmlns="http://www.w3.org/2000/svg">
<path d="M22.5541 17.9267L19.3151 14.6877C19.0581 14.4229 18.7373 14.2285 18.3835 14.1233C18.0298 14.0181 17.6549 14.0056 17.2949 14.0869C16.9349 14.1682 16.6019 14.3407 16.3277 14.5877C16.0535 14.8347 15.8474 15.1481 15.7291 15.4977C15.5452 15.9982 15.1857 16.4148 14.7176 16.6701C14.2494 16.9254 13.7045 17.002 13.1841 16.8857C10.8711 16.3077 7.74813 13.2997 7.17013 10.8717C7.03011 10.3503 7.09629 9.79493 7.35494 9.32102C7.6136 8.8471 8.04484 8.49101 8.55913 8.32669C8.90815 8.20776 9.2208 8.00123 9.46714 7.72687C9.71348 7.45251 9.88526 7.1195 9.96605 6.75973C10.0468 6.39996 10.0339 6.02548 9.92852 5.67214C9.82313 5.31879 9.62879 4.99842 9.36413 4.74169L6.13013 1.50269C5.70403 1.11183 5.14684 0.894989 4.56863 0.894989C3.99042 0.894989 3.43323 1.11183 3.00713 1.50269L0.807128 3.70269C-1.39287 6.01569 1.03813 12.1457 6.47413 17.5827C11.9101 23.0197 18.0401 25.5637 20.3541 23.2497L22.5541 21.0497C22.945 20.6236 23.1618 20.0664 23.1618 19.4882C23.1618 18.91 22.945 18.3528 22.5541 17.9267Z" fill="#EB7717"/>
</svg>
